<svg width="36.463379" height="21.166779" viewBox="0 0 36.4634 21.1668" fill="none" xmlns="http://www.w3.org/2000/svg" xmlns:xlink="http://www.w3.org/1999/xlink">
	<desc>
			Created with Pixso.
	</desc>
	<defs/>
	<path id="Vector" d="M13.762 20.8951L13.7517 20.8916L13.7195 20.8776C13.531 20.795 13.344 20.7102 13.1584 20.6233C10.9287 19.568 8.84497 18.3283 6.94165 16.9249C3.57129 14.4201 0 10.7031 0 6.12509C0 2.70908 3.60938 9.15527e-05 7.96558 9.15527e-05C9.17676 -0.00463867 10.3735 0.20816 11.467 0.62262C12.5605 1.03711 13.5227 1.64261 14.282 2.39407C15.0413 1.64246 16.0037 1.03687 17.0974 0.622375C18.1914 0.207886 19.3884 -0.00482178 20.5996 9.15527e-05C24.9546 9.15527e-05 28.564 2.70908 28.564 6.12509C28.564 10.7043 24.9927 14.4213 21.6221 16.9237C19.719 18.3272 17.6353 19.5669 15.4055 20.6221C15.22 20.7094 15.033 20.7946 14.8445 20.8776L14.8123 20.8916L14.802 20.8962L14.7976 20.8974C14.6387 20.9644 14.4617 20.9995 14.282 20.9995C14.1023 20.9995 13.9253 20.9644 13.7664 20.8974L13.762 20.8951Z" fill="#FFFFFF" fill-opacity="1.000000" fill-rule="nonzero"/>
	<path id="offline_bolt" d="M26.7036 18.9668L30.7087 12.7335L27.9465 12.7335L27.9465 8.70013L23.8032 14.9334L26.7036 14.9334L26.7036 18.9668ZM27.2561 21.1668C25.9822 21.1668 24.7854 20.9743 23.665 20.5893C22.5449 20.2043 21.5703 19.6818 20.7417 19.0218C19.9131 18.3618 19.2571 17.5857 18.7737 16.6935C18.2903 15.8012 18.0486 14.8479 18.0486 13.8335C18.0486 12.819 18.2903 11.8657 18.7737 10.9734C19.2571 10.0812 19.9131 9.30511 20.7417 8.64511C21.5703 7.98511 22.5449 7.46262 23.665 7.07764C24.7854 6.69263 25.9822 6.50012 27.2561 6.50012C28.5298 6.50012 29.7266 6.69263 30.8469 7.07764C31.967 7.46262 32.9417 7.98511 33.7703 8.64511C34.5989 9.30511 35.2549 10.0812 35.7383 10.9734C36.2217 11.8657 36.4634 12.819 36.4634 13.8335C36.4634 14.8479 36.2217 15.8012 35.7383 16.6935C35.2549 17.5857 34.5989 18.3618 33.7703 19.0218C32.9417 19.6818 31.967 20.2043 30.8469 20.5893C29.7266 20.9743 28.5298 21.1668 27.2561 21.1668Z" fill="#894189" fill-opacity="1.000000" fill-rule="nonzero"/>
	<path id="offline_bolt" d="M27.1724 18.5001L30.8135 12.8334L28.3022 12.8334L28.3022 9.16675L24.5356 14.8334L27.1724 14.8334L27.1724 18.5001ZM27.6746 20.5001C26.5166 20.5001 25.4285 20.3251 24.4102 19.9751C23.3918 19.6251 22.5059 19.1501 21.7524 18.5501C20.9993 17.9501 20.4028 17.2445 19.9634 16.4334C19.5239 15.6223 19.3042 14.7556 19.3042 13.8334C19.3042 12.9112 19.5239 12.0445 19.9634 11.2334C20.4028 10.4223 20.9993 9.71674 21.7524 9.11676C22.5059 8.51675 23.3918 8.04175 24.4102 7.69174C25.4285 7.34174 26.5166 7.16675 27.6746 7.16675C28.8325 7.16675 29.9207 7.34174 30.939 7.69174C31.9575 8.04175 32.8433 8.51675 33.5967 9.11676C34.3499 9.71674 34.9463 10.4223 35.3857 11.2334C35.8252 12.0445 36.0449 12.9112 36.0449 13.8334C36.0449 14.7556 35.8252 15.6223 35.3857 16.4334C34.9463 17.2445 34.3499 17.9501 33.5967 18.5501C32.8433 19.1501 31.9575 19.6251 30.939 19.9751C29.9207 20.3251 28.8325 20.5001 27.6746 20.5001Z" fill="#FFFFFF" fill-opacity="1.000000" fill-rule="nonzero"/>
</svg>
